<svg viewBox="0 0 500 500" xmlns="http://www.w3.org/2000/svg"><path d="m370.534 390.967c4.404-10.193-13.351-4.642-17.199-6.744 3.931 2.199 12.773 17.12 17.199 6.744" fill="#f78d17"/><path d="m361.818 402.207c.072-.016 9.187-7.881 18.334-8.658" style="fill:none;stroke:#ce711a;stroke-width:.988;stroke-linecap:round;stroke-linejoin:round;stroke-miterlimit:10"/><path d="m366.253 403.291c.02.005 4.623-3.944 8.407-5.072" style="fill:none;stroke:#ce711a;stroke-width:.988;stroke-linecap:round;stroke-linejoin:round;stroke-miterlimit:10"/><path d="m382.674 394.156c.021.096-9.778.606-13.791 6.171-.004-.013 2.587.103 7.27.158 4.097.04 7.171-1.858 6.521-6.329" fill="#f78d17"/><path d="m377.109 406.548c.07-.023 8.042-8.774 16.987-10.476" style="fill:none;stroke:#ce711a;stroke-width:.988;stroke-linecap:round;stroke-linejoin:round;stroke-miterlimit:10"/><path d="m381.627 407.166c.021.002 4.053-4.392 7.645-5.899" style="fill:none;stroke:#ce711a;stroke-width:.988;stroke-linecap:round;stroke-linejoin:round;stroke-miterlimit:10"/><path d="m396.669 396.418c.033.092-9.591 1.597-12.829 7.535-.005-.011 2.566-.164 7.204-.59 4.056-.377 6.856-2.573 5.625-6.945" fill="#f78d17"/><path d="m392.779 409.286c.068-.031 6.808-9.53 15.461-12.124" style="fill:none;stroke:#ce711a;stroke-width:.988;stroke-linecap:round;stroke-linejoin:round;stroke-miterlimit:10"/><path d="m397.331 409.436c.021.001 3.441-4.767 6.805-6.627" style="fill:none;stroke:#ce711a;stroke-width:.988;stroke-linecap:round;stroke-linejoin:round;stroke-miterlimit:10"/><path d="m410.839 397.246c.042.086-9.307 2.556-11.736 8.778-.004-.01 2.52-.423 7.063-1.313 3.975-.786 6.466-3.247 4.673-7.465" fill="#f78d17"/><path d="m408.664 410.415c.064-.038 5.502-10.147 13.773-13.599" style="fill:none;stroke:#ce711a;stroke-width:.988;stroke-linecap:round;stroke-linejoin:round;stroke-miterlimit:10"/><path d="m413.204 410.107c.018-.002 2.789-5.083 5.892-7.271" style="fill:none;stroke:#ce711a;stroke-width:.988;stroke-linecap:round;stroke-linejoin:round;stroke-miterlimit:10"/><path d="m425.035 396.638c.052.082-8.926 3.477-10.52 9.901-.007-.01 2.448-.674 6.85-2.017 3.851-1.183 6.01-3.878 3.67-7.884" fill="#f78d17"/><path d="m424.599 409.933c.06-.045 4.14-10.63 11.943-14.899" style="fill:none;stroke:#ce711a;stroke-width:.988;stroke-linecap:round;stroke-linejoin:round;stroke-miterlimit:10"/><path d="m429.079 409.167c.019-.003 2.111-5.329 4.919-7.815" style="fill:none;stroke:#ce711a;stroke-width:.988;stroke-linecap:round;stroke-linejoin:round;stroke-miterlimit:10"/><path d="m439.114 394.591c.057.077-8.455 4.362-9.196 10.903-.009-.009 2.348-.919 6.565-2.7 3.687-1.567 5.495-4.465 2.631-8.203" fill="#f78d17"/><path d="m376.233 378.627c-.054-.069-.126 11.177 7.862 15.786" style="fill:none;stroke:#ce711a;stroke-width:.988;stroke-linecap:round;stroke-linejoin:round;stroke-miterlimit:10"/><path d="m379.516 379.94c-.018-.008.405 5.45 2.7 8.083" style="fill:none;stroke:#ce711a;stroke-width:.988;stroke-linecap:round;stroke-linejoin:round;stroke-miterlimit:10"/><path d="m386.653 394.871c-.061.078-8.344-4.625-7.284-11.251.008-.009 1.718 1.194 5.214 3.064 2.999 1.603 4.806 4.358 2.07 8.187" fill="#f78d17"/><path d="m388.284 381.664c-.06-.063 1.319 11.1 9.826 14.864" style="fill:none;stroke:#ce711a;stroke-width:.988;stroke-linecap:round;stroke-linejoin:round;stroke-miterlimit:10"/><path d="m391.697 382.629c-.018-.007 1.108 5.366 3.721 7.746" style="fill:none;stroke:#ce711a;stroke-width:.988;stroke-linecap:round;stroke-linejoin:round;stroke-miterlimit:10"/><path d="m400.702 396.72c-.052.086-8.86-3.74-8.672-10.424.008-.008 1.853 1.009 5.554 2.51 3.179 1.287 5.33 3.839 3.118 7.914" fill="#f78d17"/><path d="m400.596 383.446c-.067-.057 2.749 10.883 11.689 13.763" style="fill:none;stroke:#ce711a;stroke-width:.988;stroke-linecap:round;stroke-linejoin:round;stroke-miterlimit:10"/><path d="m404.102 384.058c-.019-.004 1.799 5.214 4.703 7.315" style="fill:none;stroke:#ce711a;stroke-width:.988;stroke-linecap:round;stroke-linejoin:round;stroke-miterlimit:10"/><path d="m414.885 397.139c-.046.091-9.292-2.819-9.975-9.475.007-.008 1.967.815 5.84 1.933 3.323.956 5.797 3.272 4.135 7.542" fill="#f78d17"/><path d="m413.037 383.97c-.072-.049 4.151 10.532 13.435 12.485" style="fill:none;stroke:#ce711a;stroke-width:.988;stroke-linecap:round;stroke-linejoin:round;stroke-miterlimit:10"/><path d="m416.602 384.223c-.02-.001 2.472 4.999 5.637 6.788" style="fill:none;stroke:#ce711a;stroke-width:.988;stroke-linecap:round;stroke-linejoin:round;stroke-miterlimit:10"/><path d="m429.052 396.123c-.036.094-9.625-1.86-11.174-8.399.005-.011 2.064.609 6.065 1.327 3.434.614 6.204 2.662 5.109 7.072" fill="#f78d17"/><path d="m425.482 383.233c-.078-.042 5.513 10.039 15.041 11.03" style="fill:none;stroke:#ce711a;stroke-width:.988;stroke-linecap:round;stroke-linejoin:round;stroke-miterlimit:10"/><path d="m429.068 383.124c-.021 0 3.12 4.712 6.517 6.166" style="fill:none;stroke:#ce711a;stroke-width:.988;stroke-linecap:round;stroke-linejoin:round;stroke-miterlimit:10"/><path d="m443.06 393.666c-.027.099-9.859-.86-12.26-7.196.007-.012 2.137.397 6.228.699 3.509.258 6.551 2.006 6.032 6.497" fill="#f78d17"/><path d="m360.354 387.313c33.114 13.433 71.543 13.294 104.812-.645" style="fill:none;stroke:#ce711a;stroke-width:.988;stroke-linecap:round;stroke-linejoin:round;stroke-miterlimit:10"/><path d="m120.707 100.587c5.751 8.439 11.73-4.493 15.737-5.335-4.136.829-21.625-3.226-15.737 5.335" fill="#f78d17"/><path d="m116.654 89.186c-.029.048 1.017 9.662-3.774 15.089" style="fill:none;stroke:#ce711a;stroke-width:.882;stroke-linecap:round;stroke-linejoin:round;stroke-miterlimit:10"/><path d="m113.131 90.952c-.014.006.495 4.848-.823 7.572" style="fill:none;stroke:#ce711a;stroke-width:.882;stroke-linecap:round;stroke-linejoin:round;stroke-miterlimit:10"/><path d="m110.885 105.284c-.091-.045 5.305-5.667 3.119-11.147.012.005-1.619 1.343-4.442 3.853-2.464 2.201-2.732 4.995 1.323 7.294" fill="#f78d17"/><path d="m104.017 94.911c-.023.053 2.431 9.57-1.481 15.438" style="fill:none;stroke:#ce711a;stroke-width:.882;stroke-linecap:round;stroke-linejoin:round;stroke-miterlimit:10"/><path d="m100.831 96.999c-.014.008 1.199 4.804.304 7.649" style="fill:none;stroke:#ce711a;stroke-width:.882;stroke-linecap:round;stroke-linejoin:round;stroke-miterlimit:10"/><path d="m100.725 111.541c-.093-.038 4.38-6.156 1.429-11.436.012.004-1.388 1.491-3.79 4.259-2.096 2.426-1.956 5.249 2.361 7.177" fill="#f78d17"/><path d="m92.474 101.794c-.016.054 3.781 9.349.775 15.585" style="fill:none;stroke:#ce711a;stroke-width:.882;stroke-linecap:round;stroke-linejoin:round;stroke-miterlimit:10"/><path d="m89.648 104.175c-.012.009 1.874 4.695 1.404 7.627" style="fill:none;stroke:#ce711a;stroke-width:.882;stroke-linecap:round;stroke-linejoin:round;stroke-miterlimit:10"/><path d="m91.638 118.741c-.095-.031 3.426-6.569-.24-11.579.012.002-1.148 1.618-3.113 4.613-1.712 2.623-1.171 5.437 3.353 6.966" fill="#f78d17"/><path d="m82.123 109.746c-.008.057 5.063 9.008 2.987 15.544" style="fill:none;stroke:#ce711a;stroke-width:.882;stroke-linecap:round;stroke-linejoin:round;stroke-miterlimit:10"/><path d="m79.683 112.392c-.011.012 2.516 4.531 2.47 7.512" style="fill:none;stroke:#ce711a;stroke-width:.882;stroke-linecap:round;stroke-linejoin:round;stroke-miterlimit:10"/><path d="m83.714 126.806c-.097-.021 2.442-6.908-1.883-11.585.013.002-.897 1.728-2.408 4.916-1.315 2.791-.385 5.562 4.291 6.669" fill="#f78d17"/><path d="m73.063 118.681c0 .06 6.266 8.556 5.139 15.323" style="fill:none;stroke:#ce711a;stroke-width:.882;stroke-linecap:round;stroke-linejoin:round;stroke-miterlimit:10"/><path d="m71.033 121.568c-.009.012 3.121 4.308 3.495 7.307" style="fill:none;stroke:#ce711a;stroke-width:.882;stroke-linecap:round;stroke-linejoin:round;stroke-miterlimit:10"/><path d="m77.041 135.664c-.099-.015 1.435-7.179-3.49-11.46.012 0-.641 1.818-1.681 5.164-.903 2.932.406 5.633 5.171 6.296" fill="#f78d17"/><path d="m127.45 111.002c.09.012-9.095-6.699-17.619-5.099" style="fill:none;stroke:#ce711a;stroke-width:.882;stroke-linecap:round;stroke-linejoin:round;stroke-miterlimit:10"/><path d="m124.425 112.007c.019-.006-4.713-3.015-8.233-3.331" style="fill:none;stroke:#ce711a;stroke-width:.882;stroke-linecap:round;stroke-linejoin:round;stroke-miterlimit:10"/><path d="m107.94 107.022c-.029-.081 8.745-1.787 13.553 2.72.002.009-2 .226-5.608 1.011-3.095.678-6.427.024-7.945-3.731" fill="#f78d17"/><path d="m117.809 115.742c.086.004-9.892-5.87-18.03-3.485" style="fill:none;stroke:#ce711a;stroke-width:.882;stroke-linecap:round;stroke-linejoin:round;stroke-miterlimit:10"/><path d="m114.992 117.023c.015-.008-5.062-2.583-8.566-2.576" style="fill:none;stroke:#ce711a;stroke-width:.882;stroke-linecap:round;stroke-linejoin:round;stroke-miterlimit:10"/><path d="m98.083 113.55c-.036-.08 8.329-2.592 13.701 1.476.003.01-1.926.408-5.355 1.527-2.941.962-6.312.616-8.346-3.003" fill="#f78d17"/><path d="m109.041 121.368c.086-.004-10.562-4.967-18.232-1.822" style="fill:none;stroke:#ce711a;stroke-width:.882;stroke-linecap:round;stroke-linejoin:round;stroke-miterlimit:10"/><path d="m106.458 122.907c.015-.007-5.348-2.117-8.793-1.785" style="fill:none;stroke:#ce711a;stroke-width:.882;stroke-linecap:round;stroke-linejoin:round;stroke-miterlimit:10"/><path d="m89.326 120.998c-.048-.075 7.826-3.37 13.693.208.004.01-1.835.586-5.05 2.025-2.756 1.237-6.125 1.204-8.643-2.233" fill="#f78d17"/><path d="m101.23 127.809c.083-.009-11.106-3.993-18.218-.116" style="fill:none;stroke:#ce711a;stroke-width:.882;stroke-linecap:round;stroke-linejoin:round;stroke-miterlimit:10"/><path d="m98.907 129.595c.012-.01-5.569-1.624-8.917-.967" style="fill:none;stroke:#ce711a;stroke-width:.882;stroke-linecap:round;stroke-linejoin:round;stroke-miterlimit:10"/><path d="m81.754 129.293c-.056-.075 7.237-4.12 13.522-1.081.004.01-1.723.756-4.688 2.504-2.54 1.5-5.865 1.789-8.834-1.423" fill="#f78d17"/><path d="m94.449 135.002c.081-.015-11.509-2.963-17.975 1.622" style="fill:none;stroke:#ce711a;stroke-width:.882;stroke-linecap:round;stroke-linejoin:round;stroke-miterlimit:10"/><path d="m92.412 137.014c.011-.012-5.719-1.101-8.928-.12" style="fill:none;stroke:#ce711a;stroke-width:.882;stroke-linecap:round;stroke-linejoin:round;stroke-miterlimit:10"/><path d="m75.457 138.354c-.064-.072 6.557-4.841 13.18-2.383.007.008-1.592.923-4.268 2.964-2.294 1.753-5.532 2.366-8.912-.581" fill="#f78d17"/><path d="m129.744 97.229c-30.671 10.005-53.359 30.948-61.659 57.278" style="fill:none;stroke:#ce711a;stroke-width:.882;stroke-linecap:round;stroke-linejoin:round;stroke-miterlimit:10"/><path d="m26.039 448.377c3.837.77 5.833 5.322 1.979 11.729-3.855 6.406 4.556 2.76 6.542 6.224 1.983 3.466-3.365 8.471-13.701 10.814 0 0-17.114-6.184-13.936-11.543 2.647-4.459 8.077-.576 9.096-3.941 1.018-3.364 1.374-15.017 10.02-13.283" fill="#50a288"/><path d="m71.581 487.41c-.704 3.164-6.166 5.07-14.268 2.344-8.104-2.725-3.102 3.873-7.229 5.701-4.125 1.829-10.603-2.2-14.129-10.441 0 0 6.514-14.28 13.288-12.037 5.638 1.869 1.215 6.519 5.408 7.135 4.193.614 18.515.17 16.93 7.298" fill="#879c3a"/><g fill="none" stroke="#153442" stroke-miterlimit="10" stroke-width="1.131"><path d="m22.692 454.581s-7.329 17.273.686 32.476"/><path d="m7.207 491.606s24.633-10.629 53.375-5.777"/></g></svg>